#!OML:ASF X:\für Bonn\!DataBase\2005_08_12_Daniel\c3d\Daniel.ASF
:FULLY-SPECIFIED
:DEGREES
766
root 2.70851 17.0859 5.9984 -2.81009 -6.65786 -8.39991
lowerback 11.1242 2.6525 7.1251
upperback 0.740445 4.41937 0.168526
thorax -4.93141 2.02569 -4.4795
lowerneck 4.02126 9.134 3.82574
upperneck 5.15012 12.6747 -8.92604
head 1.86906 6.32197 -3.43671
rclavicle 5.66536e-015 -9.54166e-015
rhumerus -22.5216 -4.78238 -81.0395
rradius 25.769
rwrist 15.849
rhand -19.2543 17.5513
rfingers 7.12502
rthumb 7.05966 -12.311
lclavicle 5.66536e-015 -9.54166e-015
lhumerus -54.5399 40.3674 40.1995
lradius 17.0287
lwrist -38.6791
lhand -15.8886 -6.43413
lfingers 7.12502
lthumb 10.3076 23.2933
rfemur 30.2481 5.33773 30.0684
rtibia -3.81667e-014
rfoot -16.6264 -2.41608
rtoes -13.2325
lfemur -34.6239 -11.0732 -11.6381
ltibia 31.1705
lfoot -25.7214 19.0399
ltoes -7.75956
767
root 2.71319 17.0494 6.18512 -2.73971 -6.79016 -8.33391
lowerback 11.2368 2.77639 7.02827
upperback 0.66092 4.57847 0.056294
thorax -5.05663 2.09765 -4.57582
lowerneck 3.82806 9.13597 3.87654
upperneck 5.11128 12.6786 -9.00482
head 1.90055 6.32011 -3.46248
rclavicle 1.21756e-014 1.35174e-014
rhumerus -22.3347 -5.70865 -81.0092
rradius 25.6282
rwrist 15.8957
rhand -19.6403 17.7693
rfingers 7.12502
rthumb 6.68704 -12.1051
lclavicle 1.21756e-014 1.35174e-014
lhumerus -57.4407 43.3007 35.3983
lradius 16.1923
lwrist -42.4352
lhand -16.3088 -6.21457
lfingers 7.12502
lthumb 9.90224 23.5326
rfemur 30.7812 5.2314 29.7825
rtibia -3.49861e-014
rfoot -16.5173 -1.99226
rtoes -13.1767
lfemur -34.6034 -9.95558 -12.0359
ltibia 31.1803
lfoot -24.8935 19.3706
ltoes -6.20026
768
root 2.71929 17.0128 6.37827 -2.69213 -6.85873 -8.18631
lowerback 11.2605 2.88243 6.84266
upperback 0.633459 4.6922 -0.0641787
thorax -5.08878 2.1548 -4.61715
lowerneck 3.58931 9.15167 3.92099
upperneck 5.05343 12.7009 -9.13051
head 1.93866 6.32602 -3.50049
rclavicle 2.09221e-014 5.56597e-015
rhumerus -22.1577 -6.70916 -80.9704
rradius 25.4484
rwrist 16.0756
rhand -20.0933 18.0102
rfingers 7.12502
rthumb 6.24976 -11.8776
lclavicle 2.09221e-014 5.56597e-015
lhumerus -61.3429 46.4663 29.4078
lradius 15.3527
lwrist -46.8872
lhand -16.691 -5.9226
lfingers 7.12502
lthumb 9.53348 23.8417
rfemur 31.3601 5.07595 29.3885
rtibia -6.04305e-014
rfoot -16.3821 -1.56838
rtoes -13.1358
lfemur -34.5228 -8.56712 -12.6897
ltibia 31.3428
lfoot -23.5349 19.1758
ltoes -4.64585
769
root 2.72757 16.9792 6.57757 -2.66029 -6.93198 -8.02015
lowerback 11.2422 2.98024 6.5758
upperback 0.61346 4.78388 -0.134019
thorax -5.1035 2.20445 -4.55365
lowerneck 3.47793 9.15578 3.87983
upperneck 4.94712 12.7049 -9.30014
head 1.93423 6.32503 -3.54693
rclavicle 1.75427e-014 -1.11319e-014
rhumerus -22.0389 -7.54104 -80.9189
rradius 25.2504
rwrist 16.083
rhand -20.5251 18.0968
rfingers 7.12502
rthumb 5.83282 -11.8029
lclavicle 1.75427e-014 -1.11319e-014
lhumerus -66.7074 49.536 22.0354
lradius 14.6618
lwrist -51.8671
lhand -16.9358 -5.52429
lfingers 7.12502
lthumb 9.29726 24.2507
rfemur 31.9442 4.93479 28.9565
rtibia 2.8625e-014
rfoot -16.1235 -1.14467
rtoes -12.896
lfemur -34.4584 -7.12493 -13.4074
ltibia 31.6966
lfoot -22.1705 18.6352
ltoes -3.86988
770
root 2.73662 16.9494 6.78324 -2.64766 -6.93714 -7.78587
lowerback 11.1688 3.07289 6.26669
upperback 0.598121 4.85505 -0.2829
thorax -5.08193 2.24609 -4.54254
lowerneck 3.42935 9.1564 4.04757
upperneck 4.81856 12.7095 -9.48586
head 1.92841 6.33011 -3.63973
rclavicle 5.73494e-014 -1.03368e-014
rhumerus -22.0134 -8.44258 -80.9614
rradius 24.997
rwrist 16.1653
rhand -20.9643 18.0963
rfingers 7.12502
rthumb 5.40882 -11.8147
lclavicle 5.73494e-014 -1.03368e-014
lhumerus -73.3201 52.16 13.2703
lradius 14.0573
lwrist -57.2831
lhand -17.1929 -5.04568
lfingers 7.12502
lthumb 9.04919 24.7402
rfemur 32.5287 4.73443 28.4434
rtibia 3.49861e-014
rfoot -15.6816 -0.789346
rtoes -12.6056
lfemur -34.4398 -5.86795 -14.1821
ltibia 32.2317
lfoot -20.5933 18.1845
ltoes -3.28533
771
root 2.74551 16.9252 6.99145 -2.67072 -6.84942 -7.51739
lowerback 11.112 3.1405 5.86399
upperback 0.581724 4.88403 -0.411473
thorax -5.08556 2.26815 -4.45348
lowerneck 3.37568 9.15486 4.12445
upperneck 4.7357 12.709 -9.61269
head 1.92662 6.33041 -3.69552
rclavicle -8.19987e-015 -1.66979e-014
rhumerus -22.0601 -9.15323 -81.0007
rradius 24.7452
rwrist 16.1124
rhand -21.4246 17.8959
rfingers 7.12502
rthumb 4.96439 -12.0259
lclavicle -8.19987e-015 -1.66979e-014
lhumerus -81.4304 54.0953 3.00726
lradius 13.5183
lwrist -63.0755
lhand -17.494 -4.53078
lfingers 7.12502
lthumb 8.75866 25.2675
rfemur 33.1177 4.45015 27.8742
rtibia 3.18055e-015
rfoot -15.0492 -0.481477
rtoes -12.2894
lfemur -34.5134 -4.7132 -14.9995
ltibia 32.9376
lfoot -18.6035 17.7617
ltoes -2.06878
772
root 2.75303 16.9071 7.20483 -2.7022 -6.70927 -7.23251
lowerback 10.9923 3.20215 5.41291
upperback 0.599805 4.89428 -0.548237
thorax -5.0233 2.28538 -4.33689
lowerneck 3.29865 9.1252 4.31632
upperneck 4.64058 12.6769 -9.82885
head 1.93839 6.31587 -3.80274
rclavicle -5.69518e-014 -1.43125e-014
rhumerus -22.0921 -9.88089 -81.0553
rradius 24.3739
rwrist 16.2047
rhand -21.8677 17.6391
rfingers 7.12502
rthumb 4.53648 -12.2923
lclavicle -5.69518e-014 -1.43125e-014
lhumerus -89.0057 54.9411 -6.33743
lradius 13.1872
lwrist -68.0203
lhand -17.8178 -4.05147
lfingers 7.12502
lthumb 8.44614 25.7596
rfemur 33.6952 4.12354 27.2708
rtibia 1.59028e-014
rfoot -14.1409 -0.187005
rtoes -11.6956
lfemur -34.6027 -3.85092 -15.7538
ltibia 33.7673
lfoot -16.489 17.4911
ltoes -0.430105
773
root 2.76195 16.8917 7.41927 -2.74839 -6.44728 -6.89588
lowerback 10.8542 3.2213 4.89191
upperback 0.629545 4.83975 -0.685277
thorax -4.9512 2.27245 -4.1709
lowerneck 3.31314 9.10852 4.47002
upperneck 4.47156 12.6556 -10.0399
head 1.90691 6.31015 -3.90799
rclavicle 2.33075e-014 1.59028e-014
rhumerus -22.2133 -10.382 -81.1291
rradius 24.0788
rwrist 16.2633
rhand -22.3013 17.1839
rfingers 7.12502
rthumb 4.11784 -12.756
lclavicle 2.33075e-014 1.59028e-014
lhumerus -96.3695 55.0086 -15.2318
lradius 12.993
lwrist -72.5217
lhand -18.0911 -3.59309
lfingers 7.12502
lthumb 8.18239 26.2285
rfemur 34.2638 3.68648 26.5965
rtibia -3.18055e-014
rfoot -13.0701 0.0798632
rtoes -11.3211
lfemur -34.6713 -2.85752 -16.675
ltibia 34.682
lfoot -14.4895 16.9211
ltoes 1.00505
774
root 2.77041 16.8806 7.63167 -2.77358 -6.15759 -6.5623
lowerback 10.7322 3.22976 4.3611
upperback 0.630458 4.77329 -0.822628
thorax -4.9199 2.25142 -4.00068
lowerneck 3.28393 9.0915 4.55077
upperneck 4.3793 12.6328 -10.159
head 1.89541 6.3003 -3.9648
rclavicle -4.22417e-014 -9.54166e-015
rhumerus -22.3926 -10.6409 -81.2717
rradius 23.7552
rwrist 16.0797
rhand -22.7609 16.6512
rfingers 7.12502
rthumb 3.67399 -13.2969
lclavicle -4.22417e-014 -9.54166e-015
lhumerus -102.547 54.4661 -22.6383
lradius 12.8926
lwrist -76.2755
lhand -18.3918 -3.13806
lfingers 7.12502
lthumb 7.89222 26.6946
rfemur 34.7529 3.22659 25.9207
rtibia 8.26944e-014
rfoot -11.7092 0.201143
rtoes -11.2116
lfemur -34.7395 -2.05216 -17.5204
ltibia 35.611
lfoot -12.8483 16.2975
ltoes 1.70431
775
root 2.78316 16.875 7.8431 -2.86172 -5.8444 -6.20895
lowerback 10.7334 3.22845 3.81282
upperback 0.652436 4.69817 -0.945248
thorax -4.93788 2.22498 -3.81225
lowerneck 3.15205 9.08796 4.63752
upperneck 4.35252 12.6332 -10.298
head 1.92806 6.29769 -4.02203
rclavicle -8.19987e-014 1.11319e-014
rhumerus -22.6313 -10.9098 -81.3414
rradius 23.4387
rwrist 16.046
rhand -23.0766 16.1607
rfingers 7.12502
rthumb 3.36915 -13.7924
lclavicle -8.19987e-014 1.11319e-014
lhumerus -107.739 53.5939 -28.7791
lradius 12.8337
lwrist -79.3563
lhand -18.6477 -2.89422
lfingers 7.12502
lthumb 7.64516 26.9476
rfemur 35.2105 2.75088 25.2027
rtibia 4.13472e-014
rfoot -10.015 0.252775
rtoes -11.0609
lfemur -34.6983 -1.31803 -18.3742
ltibia 36.5411
lfoot -11.7003 15.5859
ltoes 2.00361
776
root 2.79596 16.8752 8.05124 -2.89393 -5.51842 -5.85651
lowerback 10.789 3.21595 3.25548
upperback 0.642564 4.60887 -1.07469
thorax -5.02002 2.18925 -3.62919
lowerneck 2.86597 9.07837 4.63601
upperneck 4.36728 12.6211 -10.3778
head 1.98943 6.28249 -4.0341
rclavicle 2.18663e-014 -1.03368e-014
rhumerus -22.9162 -11.0096 -81.4734
rradius 23.1509
rwrist 15.9198
rhand -23.4146 15.8499
rfingers 7.12502
rthumb 3.04272 -14.1081
lclavicle 2.18663e-014 -1.03368e-014
lhumerus -111.911 52.6228 -33.6167
lradius 12.8212
lwrist -81.6299
lhand -18.7695 -2.57826
lfingers 7.12502
lthumb 7.52768 27.2678
rfemur 35.5221 2.27238 24.4729
rtibia -3.49861e-014
rfoot -7.99782 0.158955
rtoes -11.2283
lfemur -34.6919 -0.567672 -19.2094
ltibia 37.4342
lfoot -10.7363 14.6508
ltoes 2.49478
